<?xml version="1.0" encoding="UTF-8" standalone="no"?>
<!-- Created with Inkscape (http://www.inkscape.org/) -->

<svg
   xmlns:dc="http://purl.org/dc/elements/1.1/"
   xmlns:cc="http://creativecommons.org/ns#"
   xmlns:rdf="http://www.w3.org/1999/02/22-rdf-syntax-ns#"
   xmlns:svg="http://www.w3.org/2000/svg"
   xmlns="http://www.w3.org/2000/svg"
   xmlns:xlink="http://www.w3.org/1999/xlink"
   xmlns:sodipodi="http://sodipodi.sourceforge.net/DTD/sodipodi-0.dtd"
   xmlns:inkscape="http://www.inkscape.org/namespaces/inkscape"
   width="210mm"
   height="297mm"
   viewBox="0 0 210 297"
   version="1.1"
   id="svg959"
   inkscape:version="0.92.3 (2405546, 2018-03-11)"
   sodipodi:docname="title-nb-tools.svg">
  <defs
     id="defs953">
    <linearGradient
       inkscape:collect="always"
       id="linearGradient1514">
      <stop
         style="stop-color:#000000;stop-opacity:1;"
         offset="0"
         id="stop1510" />
      <stop
         style="stop-color:#000000;stop-opacity:1"
         offset="1"
         id="stop1512" />
    </linearGradient>
    <linearGradient
       inkscape:collect="always"
       xlink:href="#linearGradient1514"
       id="linearGradient1518"
       gradientUnits="userSpaceOnUse"
       x1="14.363093"
       y1="7.4702377"
       x2="227.59674"
       y2="60.350266"
       gradientTransform="matrix(1.1546661,0,0,0.88209497,-15.978597,-5.9971662)" />
  </defs>
  <sodipodi:namedview
     id="base"
     pagecolor="#ffffff"
     bordercolor="#666666"
     borderopacity="1.0"
     inkscape:pageopacity="0.0"
     inkscape:pageshadow="2"
     inkscape:zoom="0.98994949"
     inkscape:cx="517.34871"
     inkscape:cy="912.64935"
     inkscape:document-units="mm"
     inkscape:current-layer="layer1"
     showgrid="false"
     inkscape:window-width="1920"
     inkscape:window-height="1009"
     inkscape:window-x="-8"
     inkscape:window-y="-8"
     inkscape:window-maximized="1" />
  <metadata
     id="metadata956">
    <rdf:RDF>
      <cc:Work
         rdf:about="">
        <dc:format>image/svg+xml</dc:format>
        <dc:type
           rdf:resource="http://purl.org/dc/dcmitype/StillImage" />
        <dc:title />
      </cc:Work>
    </rdf:RDF>
  </metadata>
  <g
     inkscape:label="Calque 1"
     inkscape:groupmode="layer"
     id="layer1">
    <g
       id="g1131"
       inkscape:export-filename="C:\Users\vdegu\Bureau\JB\nb-tools\_static\Images\title-tools.png"
       inkscape:export-xdpi="500"
       inkscape:export-ydpi="500">
      <rect
         inkscape:export-ydpi="500"
         inkscape:export-xdpi="500"
         y="0.59229285"
         x="0.6059795"
         height="40.009308"
         width="209.48943"
         id="rect1504"
         style="opacity:1;fill:#672178;fill-opacity:1;stroke:url(#linearGradient1518);stroke-width:0.26755688;stroke-miterlimit:4;stroke-dasharray:none;stroke-dashoffset:0;stroke-opacity:1" />
      <g
         transform="translate(-2.8070191,-0.65954672)"
         id="g1103">
        <text
           xml:space="preserve"
           style="font-style:normal;font-variant:normal;font-weight:bold;font-stretch:normal;font-size:4.23333311px;line-height:1.25;font-family:Calibri;-inkscape-font-specification:'Calibri Bold';letter-spacing:0px;word-spacing:0px;fill:#000000;fill-opacity:1;stroke:none;stroke-width:0.26458332"
           x="27.212017"
           y="30.211042"
           id="text1508"
           inkscape:export-xdpi="500"
           inkscape:export-ydpi="500"><tspan
             sodipodi:role="line"
             id="tspan1506"
             x="27.212017"
             y="30.211042"
             style="font-style:normal;font-variant:normal;font-weight:bold;font-stretch:normal;font-size:25.39999962px;font-family:'Bookman Old Style';-inkscape-font-specification:'Bookman Old Style Bold';fill:#ffffff;stroke-width:0.26458332">Tools</tspan></text>
        <polygon
           style="fill:#cdd4d5"
           points="315.712,108.881 366.997,57.596 433.366,27.428 457.5,51.563 427.332,117.931 376.047,169.216 "
           id="polygon822"
           transform="matrix(0.04951472,0,0,0.04951472,163.7133,8.5807331)" />
        <g
           id="g828"
           transform="matrix(0.04951472,0,0,0.04951472,163.7133,8.5807331)">
	
		<rect
   x="248.868"
   y="105.928"
   transform="matrix(-0.7071,-0.7071,0.7071,-0.7071,299.1308,561.8752)"
   style="fill:#9baaab"
   width="34.131001"
   height="226.11501"
   id="rect824" />

	<polygon
   style="fill:#9baaab"
   points="445.104,39.166 345.55,138.72 376.047,169.216 427.332,117.931 457.5,51.563 "
   id="polygon826" />

</g>
        <rect
           x="138.78523"
           y="-116.93656"
           transform="rotate(45)"
           style="fill:#687f82;stroke-width:0.04951425"
           width="0.86798477"
           height="11.195914"
           id="rect830" />
        <rect
           x="-141.55461"
           y="97.079475"
           transform="rotate(-135)"
           style="fill:#ff8c29;stroke-width:0.04951425"
           width="5.4923186"
           height="6.5485563"
           id="rect832" />
        <g
           id="g838"
           transform="matrix(0.04951472,0,0,0.04951472,163.7133,8.5807331)">
	<polygon
   style="fill:#ffd1a9"
   points="101.52,461.844 74.37,476.928 8,410.559 23.084,383.408 "
   id="polygon834" />

	<polygon
   style="fill:#ffd1a9"
   points="116.605,289.888 158.84,271.787 213.141,326.089 195.041,368.324 "
   id="polygon836" />

</g>
        <g
           id="g846"
           transform="matrix(0.04951472,0,0,0.04951472,163.7133,8.5807331)">
	<path
   inkscape:connector-curvature="0"
   style="fill:#f0353d"
   d="m 62.303,430.625 c -2.047,0 -4.095,-0.782 -5.656,-2.343 -3.124,-3.124 -3.124,-8.189 0,-11.313 l 93.52,-93.52 c 3.124,-3.124 8.189,-3.124 11.312,0 3.124,3.124 3.124,8.189 0,11.312 l -93.52,93.52 c -1.562,1.563 -3.61,2.344 -5.656,2.344 z"
   id="path840" />

	<path
   inkscape:connector-curvature="0"
   style="fill:#f0353d"
   d="m 86.436,448.726 c -2.048,0 -4.095,-0.782 -5.656,-2.343 -3.124,-3.124 -3.124,-8.189 0,-11.313 l 90.503,-90.503 c 3.124,-3.124 8.189,-3.124 11.312,0 3.124,3.124 3.124,8.189 0,11.313 l -90.503,90.503 c -1.561,1.562 -3.608,2.343 -5.656,2.343 z"
   id="path842" />

	<path
   inkscape:connector-curvature="0"
   style="fill:#f0353d"
   d="m 44.203,406.491 c -2.047,0 -4.095,-0.781 -5.656,-2.343 -3.124,-3.124 -3.124,-8.189 0,-11.312 l 90.502,-90.503 c 3.124,-3.124 8.189,-3.124 11.313,0 3.124,3.124 3.124,8.189 0,11.312 l -90.503,90.503 c -1.562,1.561 -3.61,2.343 -5.656,2.343 z"
   id="path844" />

</g>
        <polygon
           style="fill:#9baaab"
           points="243.05,271.084 335.062,363.096 365.23,332.928 273.218,240.917 181.206,148.905 151.039,179.073 "
           id="polygon848"
           transform="matrix(0.04951472,0,0,0.04951472,163.7133,8.5807331)" />
        <polygon
           style="fill:#687f82"
           points="350.661,347.497 166.638,163.474 151.039,179.073 243.05,271.084 335.062,363.096 "
           id="polygon850"
           transform="matrix(0.04951472,0,0,0.04951472,163.7133,8.5807331)" />
        <g
           id="g856"
           transform="matrix(0.04951472,0,0,0.04951472,163.7133,8.5807331)">
	<polygon
   style="fill:#cdd4d5"
   points="148.021,200.19 175.173,173.039 202.324,145.888 208.357,79.519 138.971,10.133 108.804,40.301 166.123,97.62 132.938,130.804 99.754,163.989 42.435,106.67 12.267,136.838 81.653,206.224 "
   id="polygon852" />

	<polygon
   style="fill:#cdd4d5"
   points="313.945,366.113 341.096,338.962 368.247,311.811 434.616,305.777 504.002,375.163 473.834,405.331 416.514,348.012 383.331,381.197 350.146,414.381 407.464,471.699 377.297,501.868 307.911,432.482 "
   id="polygon854" />

</g>
        <g
           id="g862"
           transform="matrix(0.04951472,0,0,0.04951472,163.7133,8.5807331)">
	<polygon
   style="fill:#9baaab"
   points="175.689,172.524 133.454,130.289 132.938,130.804 99.754,163.989 42.435,106.67 12.267,136.838 81.653,206.224 148.021,200.19 175.173,173.039 "
   id="polygon858" />

	<polygon
   style="fill:#9baaab"
   points="407.464,471.699 350.146,414.381 383.331,381.197 383.846,380.681 341.611,338.446 341.096,338.962 313.945,366.113 307.911,432.482 377.297,501.868 "
   id="polygon860" />

</g>
        <path
           inkscape:connector-curvature="0"
           d="m 188.94887,26.876769 -3.43563,-3.435629 c -0.0831,-0.08314 -0.1989,-0.125024 -0.3159,-0.114379 l -3.28629,0.298772 c -0.0922,0.0084 -0.17865,0.04887 -0.24421,0.114379 l -0.31744,0.31739 -3.67325,-3.67325 3.76075,-3.760742 0.61616,0.616211 c 0.0773,0.07729 0.1787,0.116013 0.28005,0.116013 0.10136,0 0.20277,-0.03867 0.28006,-0.116013 l 2.53936,-2.539363 c 0.0336,-0.03357 0.0608,-0.07293 0.0805,-0.116161 l 1.49371,-3.286292 c 0.0683,-0.150327 0.0363,-0.327243 -0.0805,-0.443999 l -1.19499,-1.1949879 c -0.11675,-0.1167557 -0.29362,-0.1488908 -0.444,-0.080462 l -3.28629,1.4938099 c -0.0433,0.01966 -0.0826,0.04689 -0.11621,0.08046 l -2.53916,2.539412 c -0.15469,0.154684 -0.15469,0.405476 0,0.56011 l 0.61621,0.616161 -3.76074,3.760742 -2.22708,-2.227074 0.31739,-0.317388 c 0.0656,-0.06556 0.10601,-0.151961 0.11438,-0.244207 l 0.29877,-3.286292 c 0.0106,-0.117102 -0.0312,-0.232867 -0.11438,-0.315904 l -3.43563,-3.435678 c -0.15468,-0.154684 -0.40547,-0.154684 -0.56016,0 l -1.49366,1.493711 c -0.15468,0.154684 -0.15468,0.405476 0,0.560111 l 2.55803,2.558029 -2.72608,2.726082 -2.55803,-2.557979 c -0.15468,-0.154684 -0.40547,-0.154684 -0.56011,0 l -1.49386,1.493809 c -0.15468,0.154684 -0.15468,0.405476 0,0.560111 l 3.43563,3.435628 c 0.0746,0.07462 0.17548,0.116013 0.28006,0.116013 0.0119,0 0.0239,-5.45e-4 0.0359,-0.0016 l 3.2863,-0.298772 c 0.0922,-0.0084 0.17864,-0.04887 0.2442,-0.114379 l 0.31739,-0.317389 2.22707,2.227073 -1.54208,1.542086 -0.46683,-0.466824 c -0.11447,-0.114429 -0.28718,-0.147752 -0.43612,-0.08398 l -2.08403,0.893146 c -2.4e-4,9.9e-5 -5.4e-4,1.98e-4 -7.9e-4,2.97e-4 l -0.006,0.0027 c -0.003,0.0013 -0.006,0.003 -0.009,0.0044 -0.008,0.0037 -0.0161,0.0075 -0.0241,0.01178 -0.005,0.0027 -0.01,0.0056 -0.0144,0.0085 -0.006,0.0037 -0.0124,0.0074 -0.0184,0.01144 -0.006,0.0042 -0.0122,0.0088 -0.0182,0.01337 -0.004,0.0032 -0.009,0.0063 -0.0126,0.0097 -0.007,0.006 -0.014,0.01233 -0.0207,0.01872 -0.002,0.0021 -0.005,0.0039 -0.007,0.0061 l -0.005,0.0045 c -4.4e-4,4.46e-4 -8.4e-4,8.42e-4 -0.001,0.0013 l -4.61814,4.618139 c -1e-4,4.9e-5 -1.5e-4,1.48e-4 -2.5e-4,2.47e-4 l -0.006,0.0064 c -0.002,0.0024 -0.005,0.0051 -0.007,0.0076 -0.006,0.0062 -0.0117,0.01243 -0.0172,0.01901 -0.004,0.0049 -0.008,0.0101 -0.0117,0.01515 -0.004,0.0051 -0.008,0.01015 -0.0113,0.0155 -0.005,0.0071 -0.009,0.01441 -0.0136,0.02174 -0.002,0.003 -0.004,0.0057 -0.005,0.0087 l -0.004,0.008 c -5e-5,9.9e-5 -1e-4,1.48e-4 -1.5e-4,2.47e-4 l -0.74228,1.336204 c -0.0859,0.154585 -0.0589,0.347396 0.0661,0.47242 l 3.28629,3.286243 c 0.0762,0.0762 0.17761,0.116013 0.28021,0.116013 0.0657,0 0.13186,-0.01634 0.19221,-0.04986 l 1.34433,-0.74688 c 0.003,-0.0018 0.006,-0.004 0.009,-0.0058 0.007,-0.0042 0.0141,-0.0084 0.0209,-0.01302 0.006,-0.0038 0.0106,-0.0078 0.0159,-0.01173 0.005,-0.0038 0.01,-0.0074 0.0148,-0.01144 0.007,-0.0055 0.0129,-0.01134 0.0191,-0.01723 0.002,-0.0024 0.005,-0.0045 0.008,-0.0069 l 0.006,-0.0065 c 5e-5,-4.9e-5 1e-4,-9.9e-5 1.5e-4,-1.48e-4 l 4.62393,-4.623932 c 0.005,-0.0051 0.01,-0.01055 0.0144,-0.0159 0.003,-0.0036 0.007,-0.007 0.01,-0.01074 9.9e-4,-0.0011 0.002,-0.0023 0.003,-0.0035 0.01,-0.01208 0.0187,-0.02476 0.0269,-0.03763 0.002,-0.0028 0.003,-0.0057 0.005,-0.0085 0.009,-0.01431 0.0163,-0.02897 0.0229,-0.04397 6e-4,-0.0013 0.001,-0.0024 0.002,-0.0038 l 0.003,-0.006 c 2e-4,-4.95e-4 4.5e-4,-9.9e-4 6.4e-4,-0.0015 l 0.89305,-2.083777 c 0.0638,-0.148891 0.0305,-0.321549 -0.084,-0.436126 l -0.46682,-0.466825 1.54209,-1.542086 3.67325,3.673249 -0.31739,0.31739 c -0.0656,0.06556 -0.10602,0.15196 -0.11438,0.244206 l -0.29877,3.286292 c -0.0106,0.117102 0.0312,0.232868 0.11437,0.315904 l 3.43563,3.435628 c 0.0773,0.07729 0.1787,0.116013 0.28006,0.116013 0.10135,0 0.20276,-0.03867 0.28005,-0.116013 l 1.49371,-1.49371 c 0.15469,-0.154685 0.15469,-0.405476 0,-0.560111 l -2.55808,-2.558029 2.72609,-2.726083 2.55808,2.55803 c 0.15468,0.154684 0.40547,0.154684 0.56011,0 l 1.49371,-1.493711 c 0.15508,-0.154882 0.15508,-0.405675 3.9e-4,-0.560308 z m -9.09323,-1.325707 -3.95325,-3.953305 v 0 0 l -1.19504,-1.195038 -2.50718,-2.507128 0.9336,-0.9336 2.50713,2.507178 1.19499,1.194988 h 5e-5 l 3.9533,3.953305 z m -6.97043,-2.765992 1.54209,-1.542086 0.63482,0.634878 -1.54208,1.542086 z m 7.99153,-6.72187 -3.76075,3.760742 -0.63482,-0.634829 3.76074,-3.760742 z m 1.23762,-4.29971 2.97098,-1.350465 0.80679,0.806793 -1.35046,2.970982 -2.20851,2.208505 -0.61616,-0.616161 -1.19499,-1.194988 -0.61616,-0.616161 z m -11.25049,6.348133 -2.9587,0.268964 -3.02436,-3.024359 0.9336,-0.9336 2.55803,2.55803 c 0.15468,0.154684 0.40547,0.154684 0.56011,0 l 3.28629,-3.286292 c 0.15468,-0.154684 0.15468,-0.405476 0,-0.560111 l -2.55803,-2.558029 0.9336,-0.9336002 3.02436,3.0243592 -0.26896,2.958702 -0.49614,0.496138 -1.49381,1.49381 z m 0.28411,7.044064 c 2.5e-4,2.47e-4 5e-4,5.94e-4 7.5e-4,7.92e-4 2.5e-4,2.47e-4 5.4e-4,4.95e-4 7.9e-4,6.93e-4 l 1.04481,1.04481 0.61616,0.616161 -4.07051,4.070457 -1.66176,-1.661764 -1.66176,-1.661763 4.0705,-4.070457 0.61617,0.616161 z m -3.68344,6.548618 -2.86374,-2.863733 0.34675,-0.624183 1.57056,1.570558 1.57056,1.570557 z m 5.77257,-5.579863 -0.48252,-0.482521 -1.04298,-1.042928 c -8.4e-4,-8.92e-4 -0.002,-0.0019 -0.002,-0.0027 -9e-4,-8.41e-4 -0.002,-0.0016 -0.003,-0.0025 l -1.04308,-1.043078 -0.48262,-0.48262 1.30704,-0.56016 0.55729,0.557239 1.19489,1.194889 0.55724,0.557289 z m 13.93795,1.966032 -2.55808,-2.55803 c -0.15469,-0.154684 -0.40548,-0.154684 -0.56011,0 l -3.28629,3.286292 c -0.15469,0.154684 -0.15469,0.405476 0,0.560111 l 2.55808,2.558079 -0.9336,0.9336 -3.02436,-3.024359 0.26896,-2.958703 0.49614,-0.496138 1.49381,-1.493809 c 10e-5,-9.9e-5 1.5e-4,-1.49e-4 2.4e-4,-2.48e-4 l 0.49585,-0.495791 2.9587,-0.268964 3.02436,3.02436 z"
           id="path864"
           style="stroke-width:0.04951472" />
      </g>
    </g>
  </g>
</svg>
