<?xml version="1.0" encoding="UTF-8" standalone="no"?>
<!-- Uploaded to: SVG Repo, www.svgrepo.com, Generator: SVG Repo Mixer Tools -->

<svg
   xmlns:dc="http://purl.org/dc/elements/1.1/"
   xmlns:cc="http://creativecommons.org/ns#"
   xmlns:rdf="http://www.w3.org/1999/02/22-rdf-syntax-ns#"
   xmlns:svg="http://www.w3.org/2000/svg"
   xmlns="http://www.w3.org/2000/svg"
   xmlns:xlink="http://www.w3.org/1999/xlink"
   xmlns:sodipodi="http://sodipodi.sourceforge.net/DTD/sodipodi-0.dtd"
   xmlns:inkscape="http://www.inkscape.org/namespaces/inkscape"
   version="1.1"
   id="Layer_1"
   viewBox="0 0 512 512"
   xml:space="preserve"
   sodipodi:docname="Logo_work_in_progress_nb-Tool.svg"
   inkscape:version="0.92.3 (2405546, 2018-03-11)"><metadata
   id="metadata51"><rdf:RDF><cc:Work
       rdf:about=""><dc:format>image/svg+xml</dc:format><dc:type
         rdf:resource="http://purl.org/dc/dcmitype/StillImage" /><dc:title /></cc:Work></rdf:RDF></metadata><defs
   id="defs49"><linearGradient
     id="linearGradient4795"
     inkscape:collect="always"><stop
       id="stop4791"
       offset="0"
       style="stop-color:#005500;stop-opacity:1;" /><stop
       id="stop4793"
       offset="1"
       style="stop-color:#005500;stop-opacity:0" /></linearGradient><linearGradient
     gradientTransform="matrix(1.1380549,0,0,1.1380549,-4.8721643,-102.37395)"
     gradientUnits="userSpaceOnUse"
     y2="696.08093"
     x2="162.29909"
     y1="1.9560219"
     x1="748.83783"
     id="linearGradient4797"
     xlink:href="#linearGradient4795"
     inkscape:collect="always" /><style
     id="style976">.cls-1{fill:#1d1d1b;}</style><style
     id="style989">.cls-1{fill:#060645;}</style><style
     id="style994">.cls-1{fill:#060645;}</style></defs><sodipodi:namedview
   pagecolor="#ffffff"
   bordercolor="#666666"
   borderopacity="1"
   objecttolerance="10"
   gridtolerance="10"
   guidetolerance="10"
   inkscape:pageopacity="0"
   inkscape:pageshadow="2"
   inkscape:window-width="1920"
   inkscape:window-height="1009"
   id="namedview47"
   showgrid="false"
   inkscape:zoom="0.23046875"
   inkscape:cx="-1952.5424"
   inkscape:cy="831.9277"
   inkscape:window-x="-8"
   inkscape:window-y="-8"
   inkscape:window-maximized="1"
   inkscape:current-layer="Layer_1" />










<g
   id="g951"
   inkscape:export-xdpi="500"
   inkscape:export-ydpi="500"><g
     style="opacity:0.38999999"
     transform="matrix(0.49709647,0,0,0.49709647,-893.81102,-792.63504)"
     id="g921"><g
   id="g1050"
   transform="matrix(0.8379709,0,0,0.8379709,2126.7915,1664.0862)"
   inkscape:export-filename="C:\Users\vdegu\Bureau\gittest\nb-master\_static\Logo\logo_SFTP.png"
   inkscape:export-xdpi="90"
   inkscape:export-ydpi="90"><circle
     inkscape:export-ydpi="90"
     inkscape:export-xdpi="90"
     inkscape:export-filename="G:\MAMP\htdocs\PhD-WS\MASTER\logo.png"
     r="373.42465"
     cy="380.48572"
     cx="371.62042"
     id="circle1046"
     style="opacity:1;fill:url(#linearGradient4797);fill-opacity:1;stroke:none;stroke-width:2.15821385;stroke-miterlimit:4;stroke-dasharray:none;stroke-dashoffset:0;stroke-opacity:1" /><path
     inkscape:export-ydpi="90"
     inkscape:export-xdpi="90"
     inkscape:export-filename="G:\MAMP\htdocs\PhD-WS\MASTER\logo.png"
     inkscape:connector-curvature="0"
     id="path1048"
     d="M 660.57506,145.56315 A 373.42465,373.42465 0 0 0 135.23517,91.6207 a 373.42465,373.42465 0 0 0 -20.79628,18.32824 373.42465,373.42465 0 0 1 507.74218,66.85762 373.42465,373.42465 0 0 1 -33.15056,507.01334 373.42465,373.42465 0 0 0 17.60095,-12.91593 373.42465,373.42465 0 0 0 53.9436,-525.34082 z"
     style="opacity:1;fill:#000080;fill-opacity:1;stroke:none;stroke-width:2.15821385;stroke-miterlimit:4;stroke-dasharray:none;stroke-dashoffset:0;stroke-opacity:1" /></g><path
   inkscape:connector-curvature="0"
   id="path1052"
   d="m 2444.5507,2060.7626 c -1.4227,0.041 -2.8407,-0.327 -4.0856,-1.0778 -1.7739,-1.0786 -3.0278,-2.8426 -3.4435,-4.8784 -3.1992,-15.5184 -10.9798,-29.4624 -22.5068,-40.3349 l -4.5442,-4.2849 c -11.5176,-10.86 -25.8988,-17.8127 -41.5824,-20.0911 -2.0906,-0.3113 -3.9551,-1.4795 -5.1293,-3.2417 -1.1739,-1.7538 -1.5475,-3.9206 -1.034,-5.9711 0.3113,-1.2363 1.105,-3.5839 2.9489,-5.5395 l 71.0793,-75.3872 c 10.7663,-11.5694 28.6185,-13.4632 41.586,-4.4509 0.098,0.064 0.1878,0.12 0.2859,0.1801 1.1978,0.7103 2.4359,1.658 3.6719,2.8154 l 39.9769,37.6988 c 1.1717,1.1048 2.1043,2.204 3.0208,3.3161 0.8217,1.0271 1.452,1.9551 2.0699,2.8835 7.8113,12.7068 6.1793,28.7156 -3.7548,39.2604 l -71.0806,75.488 c -1.9163,1.7693 -3.7295,2.7774 -5.6525,3.3238 -0.5934,0.1851 -1.2106,0.2744 -1.8257,0.2924 z m -61.4223,-82.7052 c 13.8215,4.033 26.4685,11.2622 37.0863,21.2738 l 4.5443,4.285 c 10.6393,10.0358 18.6081,22.2608 23.443,35.856 l 64.0462,-68.0488 0.01,-2e-4 c 5.3204,-5.6469 6.1861,-14.2406 2.1043,-20.8892 -0.2932,-0.4269 -0.6834,-1.0226 -1.1488,-1.6121 -0.4559,-0.5479 -0.9863,-1.2107 -1.6754,-1.8605 l -39.964,-37.682 c -0.6246,-0.589 -0.9826,-0.8004 -1.0211,-0.8286 -0.1661,-0.096 -0.3283,-0.1997 -0.4908,-0.3122 -0.2256,-0.1227 -0.443,-0.2551 -0.6443,-0.4042 -6.9114,-4.8853 -16.4926,-3.8666 -22.2703,2.338 z"
   style="stroke-width:1.07167315"
   inkscape:export-filename="C:\Users\vdegu\Bureau\gittest\nb-master\_static\Logo\logo_SFTP.png"
   inkscape:export-xdpi="90"
   inkscape:export-ydpi="90" /><path
   inkscape:connector-curvature="0"
   id="path1054"
   d="m 2423.3197,2135.471 c -0.2134,0 -0.4354,0 -0.6494,-0.013 -2.2024,-0.124 -4.2366,-1.2242 -5.5534,-2.9947 -17.4531,-23.4172 -37.1088,-45.4263 -58.4223,-65.4043 -20.6069,-19.3169 -43.0591,-36.9972 -66.7267,-52.5468 -1.8491,-1.2147 -3.0626,-3.1767 -3.3156,-5.3721 -0.2571,-2.1954 0.4702,-4.3819 1.985,-5.9886 5.353,-5.677 11.3971,-10.6458 17.968,-14.7756 18.2828,-11.4676 40.4184,-16.131 61.8971,-13.0429 18.7766,2.7443 35.9556,11.034 49.6959,23.9815 l 4.5012,4.2442 c 13.7318,12.9479 23.0246,29.6071 26.8703,48.1771 6.0602,29.222 -2.5526,59.6492 -23.0428,81.3886 -1.3604,1.4513 -3.2372,2.2854 -5.2081,2.3433 z m -115.3439,-128.194 c 21.5147,14.7089 41.9744,31.1354 60.9273,48.8928 19.673,18.4394 37.966,38.5535 54.4915,59.8837 12.9728,-17.4432 18.0254,-39.7505 13.5606,-61.2927 -3.2211,-15.552 -10.9977,-29.4993 -22.494,-40.3396 l -4.5012,-4.2441 c -11.4964,-10.8317 -25.8802,-17.7672 -41.5946,-20.0695 -17.9466,-2.5928 -36.5146,1.3202 -51.8207,10.9082 -2.9894,1.8802 -5.8552,3.9789 -8.569,6.2616 z"
   style="stroke-width:1.07167315"
   inkscape:export-filename="C:\Users\vdegu\Bureau\gittest\nb-master\_static\Logo\logo_SFTP.png"
   inkscape:export-xdpi="90"
   inkscape:export-ydpi="90" /><path
   inkscape:connector-curvature="0"
   id="path1056"
   d="m 2513.7338,2039.5384 c -1.908,0.056 -3.8376,-0.6158 -5.3408,-2.0292 l -25.5423,-24.0758 c -2.998,-2.8268 -3.1368,-7.551 -0.31,-10.549 2.8268,-2.998 7.551,-3.1368 10.549,-0.31 l 25.5424,24.0759 c 2.9979,2.8268 3.1367,7.5509 0.3099,10.5489 -1.4093,1.4947 -3.3,2.2832 -5.2082,2.3392 z"
   style="stroke-width:1.07167315"
   inkscape:export-filename="C:\Users\vdegu\Bureau\gittest\nb-master\_static\Logo\logo_SFTP.png"
   inkscape:export-xdpi="90"
   inkscape:export-ydpi="90" /><path
   inkscape:connector-curvature="0"
   id="path1058"
   d="m 2412.2438,1943.8842 c -1.9081,0.056 -3.8376,-0.616 -5.3408,-2.0294 l -25.5424,-24.0758 c -2.9979,-2.8268 -3.1367,-7.551 -0.3099,-10.549 2.8268,-2.998 7.551,-3.1368 10.5489,-0.31 l 25.5424,24.0759 c 2.998,2.8268 3.1368,7.5511 0.31,10.5489 -1.4134,1.4991 -3.3001,2.2832 -5.2082,2.3394 z"
   style="stroke-width:1.07167315"
   inkscape:export-filename="C:\Users\vdegu\Bureau\gittest\nb-master\_static\Logo\logo_SFTP.png"
   inkscape:export-xdpi="90"
   inkscape:export-ydpi="90" /><path
   inkscape:connector-curvature="0"
   id="path1060"
   d="m 2578.1331,2161.6387 c -4.4773,0.132 -9.0004,-1.4358 -12.5106,-4.7376 l -0.01,-0.013 -82.5881,-77.8408 c -7.021,-6.6203 -7.3511,-17.7134 -0.7347,-24.7427 l 51.5799,-54.716 c 3.2044,-3.3985 7.5402,-5.3561 12.2142,-5.4935 l 0.013,-4e-4 c 4.6699,-0.1372 9.1127,1.554 12.5155,4.7584 l 82.5881,77.8408 c 3.4026,3.2044 5.352,7.5446 5.4894,12.2187 0.1371,4.6699 -1.5497,9.1168 -4.7627,12.5156 l -51.5677,54.7243 c -3.3142,3.5148 -7.7457,5.3495 -12.2318,5.4813 z m -2.2763,-15.6088 c 1.0422,0.9746 2.6742,0.9266 3.6447,-0.1066 l 51.572,-54.7245 c 0.6377,-0.6762 0.7117,-1.4364 0.6998,-1.8381 -0.012,-0.4017 -0.1346,-1.1645 -0.8066,-1.7981 l -82.5881,-77.8408 c -0.6721,-0.6378 -1.4405,-0.7074 -1.838,-0.6956 -0.4017,0.013 -1.1645,0.1345 -1.798,0.8108 l -51.5798,54.716 c -0.9706,1.0336 -0.9226,2.6654 0.1123,3.6444 z"
   style="stroke-width:1.07167315"
   inkscape:export-filename="C:\Users\vdegu\Bureau\gittest\nb-master\_static\Logo\logo_SFTP.png"
   inkscape:export-xdpi="90"
   inkscape:export-ydpi="90" /><path
   inkscape:connector-curvature="0"
   id="path1062"
   d="m 2353.9358,1950.2719 c -4.7033,0.1383 -9.1758,-1.5605 -12.5957,-4.7853 l -82.4511,-77.741 c -3.4287,-3.2329 -5.3872,-7.6021 -5.5212,-12.3056 -0.1333,-4.7076 1.5729,-9.1844 4.8018,-12.6046 l 51.4483,-54.486 c 6.6611,-7.0515 17.825,-7.3838 24.8845,-0.7235 l 82.3738,77.6671 c 7.0557,6.6609 7.3878,17.8205 0.739,24.8882 l 2e-4,0.013 -51.3703,54.5641 c -3.229,3.4201 -7.5938,5.3869 -12.297,5.5251 -2e-4,-0.013 -0.01,-0.013 -0.013,-0.013 z m -31.5862,-152.516 c -0.6904,0.02 -1.3689,0.3041 -1.8765,0.8425 l -51.4483,54.486 c -0.6663,0.698 -0.7433,1.5002 -0.731,1.9187 0.012,0.4143 0.1361,1.2147 0.8383,1.8767 l 82.4512,77.7441 c 0.702,0.6577 1.5,0.7348 1.9184,0.7225 l 0.01,-10e-5 c 0.4143,-0.013 1.2147,-0.1361 1.8766,-0.8425 l 51.371,-54.563 2e-4,0.013 c 1.0152,-1.0811 0.9652,-2.7842 -0.1169,-3.8036 l -82.3695,-77.6626 c -0.5383,-0.5034 -1.2281,-0.747 -1.9185,-0.7268 z m 89.8351,87.3072 h 0.071 z"
   style="stroke-width:1.07167315"
   inkscape:export-filename="C:\Users\vdegu\Bureau\gittest\nb-master\_static\Logo\logo_SFTP.png"
   inkscape:export-xdpi="90"
   inkscape:export-ydpi="90" /><path
   inkscape:connector-curvature="0"
   id="path1064"
   d="m 2320.4023,2144.4883 c -8.737,0.2567 -17.58,-2.6706 -24.6236,-8.9006 -7.1248,-6.303 -11.367,-15.003 -11.9482,-24.4924 -0.5806,-9.4982 2.5679,-18.6492 8.8671,-25.7657 13.0114,-14.7049 35.5564,-16.0878 50.258,-3.0808 7.1248,6.3031 11.367,15.003 11.9482,24.4925 0.5806,9.4982 -2.5679,18.6492 -8.8713,25.7657 -6.7731,7.6579 -16.1359,11.7027 -25.63,11.9816 z m -1.6355,-56.2305 c -5.515,0.162 -10.9532,2.508 -14.8847,6.9623 l -0.01,1e-4 c -3.6603,4.1323 -5.4853,9.4419 -5.1514,14.9597 0.3378,5.5099 2.8023,10.5636 6.9386,14.2196 8.5438,7.5639 21.6412,6.7559 29.1877,-1.7916 3.6645,-4.1324 5.4895,-9.4418 5.1514,-14.9597 -0.3378,-5.5099 -2.8023,-10.5636 -6.9386,-14.2195 -4.0891,-3.6199 -9.2275,-5.3199 -14.2987,-5.1709 z m -20.4743,2.0172 h 0.071 z"
   style="stroke-width:1.07167315"
   inkscape:export-filename="C:\Users\vdegu\Bureau\gittest\nb-master\_static\Logo\logo_SFTP.png"
   inkscape:export-xdpi="90"
   inkscape:export-ydpi="90" /><path
   inkscape:connector-curvature="0"
   id="path1066"
   d="m 2338.234,2095.3001 c -1.8327,0.053 -3.6852,-0.5618 -5.1642,-1.8668 -3.0873,-2.7321 -3.3766,-7.4478 -0.6447,-10.5393 l 24.3685,-27.5484 c 2.7323,-3.0789 7.4482,-3.3598 10.5307,-0.6444 3.0873,2.732 3.3766,7.4476 0.6447,10.5391 l -24.3685,27.5484 c -1.4189,1.5996 -3.379,2.453 -5.3665,2.5114 z"
   style="stroke-width:1.07167315"
   inkscape:export-filename="C:\Users\vdegu\Bureau\gittest\nb-master\_static\Logo\logo_SFTP.png"
   inkscape:export-xdpi="90"
   inkscape:export-ydpi="90" /><path
   inkscape:connector-curvature="0"
   id="path1068"
   d="m 2275.7318,2301.2309 c -21.3825,0.6282 -54.3407,-2.9012 -85.4186,-24.4983 -60.4478,-41.9884 -60.6435,-114.4697 -60.4672,-122.5911 0.088,-4.1236 3.6076,-7.3554 7.6253,-7.306 4.1194,0.088 7.386,3.502 7.2977,7.6256 -0.1578,7.3127 0.011,72.4654 54.0585,110.0208 36.2838,25.197 75.6023,22.7894 90.8369,20.621 4.0782,-0.6015 7.8636,2.2316 8.4529,6.3226 0.5846,4.0746 -2.24,7.8598 -6.3228,8.4488 -3.9911,0.5738 -9.4809,1.1664 -16.0635,1.3598 z"
   style="fill:#000080;stroke:#000080;stroke-width:1.07167315"
   inkscape:export-filename="C:\Users\vdegu\Bureau\gittest\nb-master\_static\Logo\logo_SFTP.png"
   inkscape:export-xdpi="90"
   inkscape:export-ydpi="90" /><path
   inkscape:connector-curvature="0"
   id="path1070"
   d="m 2300.9611,2244.2519 c -16.6327,0.4887 -42.2733,-2.2633 -66.4722,-19.0746 -47.0577,-32.6791 -47.2023,-89.0456 -47.0652,-95.3644 0.088,-4.1238 3.565,-7.3752 7.6253,-7.3062 4.1236,0.088 7.3862,3.5104 7.2977,7.6256 -0.049,2.196 -0.7022,54.067 40.6562,82.7836 27.2942,18.966 56.8796,17.1704 68.3315,15.5067 4.0487,-0.6091 7.8678,2.2313 8.4527,6.3143 0.589,4.0826 -2.2398,7.868 -6.3227,8.4529 -3.1025,0.4513 -7.3775,0.912 -12.5031,1.0625 z"
   style="fill:#000080;stroke:#000080;stroke-width:1.07167315"
   inkscape:export-filename="C:\Users\vdegu\Bureau\gittest\nb-master\_static\Logo\logo_SFTP.png"
   inkscape:export-xdpi="90"
   inkscape:export-ydpi="90" /><path
   inkscape:connector-curvature="0"
   id="path1072"
   d="m 2320.5715,2191.6238 c -12.2557,0.3601 -31.1868,-1.6592 -49.0367,-14.0632 -34.7201,-24.1204 -34.7993,-65.6011 -34.6937,-70.2531 0.088,-4.1236 3.4576,-7.4725 7.6298,-7.2977 4.1196,0.097 7.3821,3.5147 7.2893,7.63 -0.035,1.5337 -0.5186,37.6493 28.2844,57.6635 18.9606,13.1673 39.5752,11.9118 47.5613,10.7734 4.0771,-0.6392 7.8639,2.2399 8.453,6.3226 0.5848,4.0829 -2.2484,7.86 -6.327,8.4489 -2.281,0.3351 -5.4081,0.6656 -9.1615,0.7759 z"
   style="fill:#000080;stroke:#000080;stroke-width:1.07167315"
   inkscape:export-filename="C:\Users\vdegu\Bureau\gittest\nb-master\_static\Logo\logo_SFTP.png"
   inkscape:export-xdpi="90"
   inkscape:export-ydpi="90" /><path
   inkscape:connector-curvature="0"
   id="path1074"
   d="m 2519.259,1951.729 c -0.1506,0 -0.3015,8e-4 -0.4565,5e-4 -2.142,-0.067 -4.1519,-1.0507 -5.5154,-2.7025 -0.5386,-0.6543 -1.069,-1.3172 -1.7581,-1.9671 l -39.9636,-37.6819 c -0.6246,-0.5889 -0.9826,-0.8002 -1.0211,-0.8285 -0.1703,-0.096 -0.3367,-0.1995 -0.5036,-0.3203 -1.8654,-1.0592 -3.2047,-2.8792 -3.6357,-5.0066 -0.4803,-2.3774 0.2093,-4.8475 1.8747,-6.6094 l 22.6826,-24.0648 c 7.4974,-7.9513 20.0628,-8.3206 28.0068,-0.8229 l 1.3584,1.1913 c 0.3225,0.2836 0.6162,0.5891 0.8856,0.9204 l 24.7974,23.3859 c 4.1262,3.8825 6.3445,8.8261 6.4754,14.1367 0.1242,5.223 -1.8072,10.1881 -5.4395,13.9925 l -22.5667,24.0324 c -1.3606,1.4431 -3.2414,2.2856 -5.2206,2.3439 z m -34.7024,-50.6272 34.3599,32.4024 17.2749,-18.4026 c 0.02,-0.021 0.041,-0.039 0.065,-0.061 1.1215,-1.1721 1.331,-2.4515 1.3137,-3.3263 -0.033,-1.2889 -0.5888,-2.5038 -1.5668,-3.4342 l -1.1129,-0.9599 c -0.1979,-0.1784 -0.3917,-0.3612 -0.569,-0.5528 l -1.4531,-1.5613 -22.4591,-21.0551 c -0.2069,-0.1992 -0.4056,-0.4028 -0.5879,-0.6235 l -0.8899,-0.7822 c -2.1446,-2.0059 -5.2495,-1.9146 -7.0975,0.041 z"
   style="stroke-width:1.07167315"
   inkscape:export-filename="C:\Users\vdegu\Bureau\gittest\nb-master\_static\Logo\logo_SFTP.png"
   inkscape:export-xdpi="90"
   inkscape:export-ydpi="90" /><path
   inkscape:connector-curvature="0"
   id="path1076"
   d="m 2540.0077,1909.1346 h -0.1256 c -2.018,0.021 -3.9678,-0.7714 -5.392,-2.2036 l -1.4976,-1.5098 -22.5663,-21.2696 c -2.9978,-2.8225 -3.1363,-7.5342 -0.3223,-10.536 l 19.8291,-21.129 c 4.4309,-4.7035 10.4207,-7.3798 16.8899,-7.5699 h 0.1004 c 6.4571,-0.1689 12.5522,2.1775 17.1634,6.5901 9.6876,9.1427 10.18,24.477 1.0665,34.1602 l -0.01,2e-4 -19.9256,21.1276 c -1.3649,1.439 -3.2373,2.2814 -5.2166,2.3395 z m -13.9242,-30.7332 13.4428,12.6721 14.755,-15.6449 c 3.4765,-3.6915 3.2619,-9.5692 -0.4853,-13.098 -1.7539,-1.6823 -4.0537,-2.5571 -6.5019,-2.4935 h -0.038 c -2.4856,0.073 -4.776,1.0868 -6.4573,2.8742 z m 33.6338,2.1444 h 0.071 z"
   style="stroke-width:1.07167315"
   inkscape:export-filename="C:\Users\vdegu\Bureau\gittest\nb-master\_static\Logo\logo_SFTP.png"
   inkscape:export-xdpi="90"
   inkscape:export-ydpi="90" /><path
   style="opacity:1;fill:#ff6600;fill-opacity:1;stroke:#ff6600;stroke-width:3.61595941;stroke-miterlimit:4;stroke-dasharray:none;stroke-dashoffset:0;stroke-opacity:1"
   d="m 2310.4657,1894.854 -42.5538,-40.1476 26.6436,-28.22 c 14.654,-15.521 27.3922,-28.242 28.3071,-28.2689 0.9149,-0.027 20.5864,17.8463 43.7145,39.718 l 42.0509,39.7668 -26.9554,28.6247 c -14.8255,15.7436 -27.3374,28.636 -27.8043,28.6497 -0.4669,0.013 -19.9981,-18.0416 -43.4026,-40.1227 z"
   id="path1078"
   inkscape:connector-curvature="0"
   inkscape:export-filename="C:\Users\vdegu\Bureau\gittest\nb-master\_static\Logo\logo_SFTP.png"
   inkscape:export-xdpi="90"
   inkscape:export-ydpi="90" /><path
   style="opacity:1;fill:#ff6600;fill-opacity:1;stroke:#ff6600;stroke-width:3.61595941;stroke-miterlimit:4;stroke-dasharray:none;stroke-dashoffset:0;stroke-opacity:1"
   d="m 2534.6549,2106.2443 -42.5538,-40.1476 26.6436,-28.22 c 14.654,-15.5209 27.3921,-28.242 28.3071,-28.2689 0.9149,-0.027 20.5864,17.8462 43.7144,39.718 l 42.051,39.7668 -26.9554,28.6247 c -14.8255,15.7436 -27.3375,28.636 -27.8043,28.6497 -0.4669,0.013 -19.9981,-18.0415 -43.4026,-40.1227 z"
   id="path1080"
   inkscape:connector-curvature="0"
   inkscape:export-filename="C:\Users\vdegu\Bureau\gittest\nb-master\_static\Logo\logo_SFTP.png"
   inkscape:export-xdpi="90"
   inkscape:export-ydpi="90" /><path
   style="opacity:1;fill:#1a1a1a;fill-opacity:1;stroke:#1a1a1a;stroke-width:3.61595941;stroke-miterlimit:4;stroke-dasharray:none;stroke-dashoffset:0;stroke-opacity:1"
   d="m 2532.9969,1884.9743 c -2.9659,-2.8853 -5.4155,-6.0312 -5.4437,-6.9909 -0.099,-3.3604 15.6491,-17.4051 19.6475,-17.5227 4.4517,-0.1307 9.4659,4.3399 9.5896,8.5499 0.079,2.6714 -15.0029,21.11 -17.3222,21.1781 -0.5933,0.017 -3.5054,-2.3291 -6.4712,-5.2144 z"
   id="path1082"
   inkscape:connector-curvature="0"
   inkscape:export-filename="C:\Users\vdegu\Bureau\gittest\nb-master\_static\Logo\logo_SFTP.png"
   inkscape:export-xdpi="90"
   inkscape:export-ydpi="90" /><path
   style="opacity:1;fill:#4d4d4d;fill-opacity:1;stroke:#4d4d4d;stroke-width:3.61595941;stroke-miterlimit:4;stroke-dasharray:none;stroke-dashoffset:0;stroke-opacity:1"
   d="m 2502.003,1916.2428 -16.4164,-15.5376 9.1987,-9.6537 c 5.0593,-5.3095 9.9297,-9.6752 10.8229,-9.7015 2.628,-0.077 31.0495,27.5995 31.1293,30.3135 0.064,2.1952 -15.4895,20.0339 -17.5201,20.0935 -0.4389,0.013 -8.1854,-6.9684 -17.2144,-15.5142 z"
   id="path1084"
   inkscape:connector-curvature="0"
   inkscape:export-filename="C:\Users\vdegu\Bureau\gittest\nb-master\_static\Logo\logo_SFTP.png"
   inkscape:export-xdpi="90"
   inkscape:export-ydpi="90" /><path
   style="opacity:1;fill:#808080;fill-opacity:1;stroke:#808080;stroke-width:3.61595941;stroke-miterlimit:4;stroke-dasharray:none;stroke-dashoffset:0;stroke-opacity:1"
   d="m 2443.4954,2028.3774 c -10.278,-19.8058 -26.1491,-35.0462 -47.2444,-45.3674 l -11.5832,-5.667 33.8342,-35.7414 c 43.8242,-46.2942 38.4289,-45.292 72.4186,-13.4525 22.1039,20.7056 24.3441,23.3217 25.3811,29.6387 l 1.1374,6.9285 -34.4185,36.7507 -34.4186,36.7508 z"
   id="path1086"
   inkscape:connector-curvature="0"
   inkscape:export-filename="C:\Users\vdegu\Bureau\gittest\nb-master\_static\Logo\logo_SFTP.png"
   inkscape:export-xdpi="90"
   inkscape:export-ydpi="90" /><path
   style="opacity:1;fill:#b3b3b3;fill-opacity:1;stroke:#b3b3b3;stroke-width:3.61595941;stroke-miterlimit:4;stroke-dasharray:none;stroke-dashoffset:0;stroke-opacity:1"
   d="m 2417.2791,2108.2198 c -20.6038,-27.3544 -71.2399,-75.0518 -100.8428,-94.9899 -5.5587,-3.744 -7.4678,-5.9188 -6.3976,-7.2883 3.3353,-4.2678 19.6605,-11.583 32.2452,-14.4488 12.3033,-2.8016 14.2397,-2.8506 25.9931,-0.6601 17.4666,3.2555 28.5728,8.6997 41.8695,20.5248 22.7669,20.2468 32.3353,48.3064 25.9665,76.1469 -2.2654,9.903 -9.6462,25.8715 -12.3898,26.8057 -0.8128,0.2768 -3.7127,-2.4639 -6.4441,-6.0903 z"
   id="path1088"
   inkscape:connector-curvature="0"
   inkscape:export-filename="C:\Users\vdegu\Bureau\gittest\nb-master\_static\Logo\logo_SFTP.png"
   inkscape:export-xdpi="90"
   inkscape:export-ydpi="90" /><path
   style="opacity:1;fill:#000000;fill-opacity:1;stroke:#000000;stroke-width:3.61595941;stroke-miterlimit:4;stroke-dasharray:none;stroke-dashoffset:0;stroke-opacity:1"
   d="m 2310.8797,2127.3278 c -7.1536,-2.9796 -11.1857,-9.2704 -11.4376,-17.8447 -0.5548,-18.8811 20.8375,-27.7767 34.137,-14.1954 15.3283,15.653 -2.3008,40.5366 -22.6994,32.0401 z"
   id="path1090"
   inkscape:connector-curvature="0"
   inkscape:export-filename="C:\Users\vdegu\Bureau\gittest\nb-master\_static\Logo\logo_SFTP.png"
   inkscape:export-xdpi="90"
   inkscape:export-ydpi="90" /><text
   xml:space="preserve"
   style="font-style:normal;font-variant:normal;font-weight:normal;font-stretch:normal;font-size:240.00001526px;line-height:1.25;font-family:'MS Reference Sans Serif';-inkscape-font-specification:'MS Reference Sans Serif';letter-spacing:0px;word-spacing:0px;fill:#800080;fill-opacity:1;stroke:#ff6600;stroke-width:1"
   x="-2549.2385"
   y="2001.2852"
   id="text1094"
   transform="rotate(-90)"
   inkscape:export-filename="C:\Users\vdegu\Bureau\gittest\nb-master\_static\Logo\logo_SFTP.png"
   inkscape:export-xdpi="90"
   inkscape:export-ydpi="90"><tspan
     sodipodi:role="line"
     id="tspan1092"
     x="-2549.2385"
     y="2001.2852"
     style="font-style:normal;font-variant:normal;font-weight:normal;font-stretch:normal;font-size:226.66667175px;font-family:'MS Reference Sans Serif';-inkscape-font-specification:'MS Reference Sans Serif';fill:#800080;stroke:#ff6600;stroke-width:1">Science</tspan></text>

<text
   id="text1098"
   y="2517.6399"
   x="2196.7026"
   style="font-style:normal;font-variant:normal;font-weight:normal;font-stretch:normal;font-size:186.66667175px;line-height:1.25;font-family:'MS Reference Sans Serif';-inkscape-font-specification:'MS Reference Sans Serif';letter-spacing:0px;word-spacing:0px;fill:#800080;fill-opacity:1;stroke:#ff6600;stroke-width:1"
   xml:space="preserve"
   inkscape:export-filename="C:\Users\vdegu\Bureau\gittest\nb-master\_static\Logo\logo_SFTP.png"
   inkscape:export-xdpi="90"
   inkscape:export-ydpi="90"><tspan
     style="font-style:normal;font-variant:normal;font-weight:normal;font-stretch:normal;font-size:186.66667175px;font-family:'MS Reference Sans Serif';-inkscape-font-specification:'MS Reference Sans Serif';fill:#800080;stroke:#ff6600;stroke-width:1"
     y="2517.6399"
     x="2196.7026"
     id="tspan1096"
     sodipodi:role="line">People</tspan></text>

<text
   xml:space="preserve"
   style="font-style:normal;font-variant:normal;font-weight:normal;font-stretch:normal;font-size:85.33333588px;line-height:1.25;font-family:Montserrat;-inkscape-font-specification:Montserrat;letter-spacing:2px;word-spacing:0px;fill:#000000;fill-opacity:1;stroke:none;stroke-width:1"
   x="2038.9415"
   y="2440.0544"
   id="text1104"
   inkscape:export-filename="C:\Users\vdegu\Bureau\gittest\nb-master\_static\Logo\logo_SFTP.png"
   inkscape:export-xdpi="90"
   inkscape:export-ydpi="90"><tspan
     sodipodi:role="line"
     id="tspan1100"
     x="2038.9415"
     y="2440.0544"
     style="font-style:normal;font-variant:normal;font-weight:bold;font-stretch:normal;font-size:80.00000763px;line-height:8.42834663px;font-family:'MS Reference Sans Serif';-inkscape-font-specification:'MS Reference Sans Serif Bold';letter-spacing:2px;word-spacing:1.75000012px;fill:#ff6600;stroke-width:1">by</tspan><tspan
     sodipodi:role="line"
     x="2038.9415"
     y="2546.7212"
     style="font-style:normal;font-variant:normal;font-weight:bold;font-stretch:normal;font-size:64px;line-height:8.42834663px;font-family:'MS Reference Sans Serif';-inkscape-font-specification:'MS Reference Sans Serif Bold';letter-spacing:2px;word-spacing:1.75000012px;fill:#ff6600;stroke-width:1"
     id="tspan1102" /></text>

<flowRoot
   xml:space="preserve"
   id="flowRoot1112"
   style="font-style:normal;font-weight:normal;font-size:16px;line-height:1.25;font-family:sans-serif;letter-spacing:0px;word-spacing:0px;fill:#000000;fill-opacity:1;stroke:none"
   transform="matrix(1.0351933,0,0,1.0351933,1802.3956,1576.138)"
   inkscape:export-filename="C:\Users\vdegu\Bureau\gittest\nb-master\_static\Logo\logo_SFTP.png"
   inkscape:export-xdpi="90"
   inkscape:export-ydpi="90"><flowRegion
     id="flowRegion1108"><rect
       id="rect1106"
       width="118.93975"
       height="167.25902"
       x="191.41866"
       y="738.7691" /></flowRegion><flowPara
     id="flowPara1110">`</flowPara></flowRoot><text
   id="text1118"
   y="2532.9751"
   x="2043.5118"
   style="font-style:normal;font-variant:normal;font-weight:normal;font-stretch:normal;font-size:85.33333588px;line-height:1.25;font-family:Montserrat;-inkscape-font-specification:Montserrat;letter-spacing:0px;word-spacing:0px;fill:#000000;fill-opacity:1;stroke:none;stroke-width:1"
   xml:space="preserve"
   inkscape:export-filename="C:\Users\vdegu\Bureau\gittest\nb-master\_static\Logo\logo_SFTP.png"
   inkscape:export-xdpi="90"
   inkscape:export-ydpi="90"><tspan
     style="font-style:normal;font-variant:normal;font-weight:bold;font-stretch:normal;font-size:80.00000763px;line-height:8.42834663px;font-family:'MS Reference Sans Serif';-inkscape-font-specification:'MS Reference Sans Serif Bold';letter-spacing:2px;word-spacing:1.75000012px;fill:#ff6600;stroke-width:1"
     y="2532.9751"
     x="2043.5118"
     id="tspan1114"
     sodipodi:role="line">for</tspan><tspan
     id="tspan1116"
     style="font-style:normal;font-variant:normal;font-weight:bold;font-stretch:normal;font-size:64px;line-height:8.42834663px;font-family:'MS Reference Sans Serif';-inkscape-font-specification:'MS Reference Sans Serif Bold';letter-spacing:1px;word-spacing:1.75000012px;fill:#ff6600;stroke-width:1"
     y="2639.6418"
     x="2043.5118"
     sodipodi:role="line" /></text>

<text
   inkscape:export-ydpi="90"
   inkscape:export-xdpi="90"
   inkscape:export-filename="C:\Users\vdegu\Bureau\gittest\nb-master\_static\Logo\logo_SFTP.png"
   id="text1124"
   y="2443.6509"
   x="2147.5996"
   style="font-style:normal;font-variant:normal;font-weight:normal;font-stretch:normal;font-size:85.33333588px;line-height:1.25;font-family:Montserrat;-inkscape-font-specification:Montserrat;letter-spacing:2px;word-spacing:0px;fill:#000000;fill-opacity:1;stroke:none;stroke-width:1"
   xml:space="preserve"><tspan
     style="font-style:normal;font-variant:normal;font-weight:normal;font-stretch:normal;font-size:53.33333588px;line-height:8.42834663px;font-family:'MS Reference Sans Serif';-inkscape-font-specification:'MS Reference Sans Serif';letter-spacing:2px;word-spacing:1.75000012px;fill:#ff6600;stroke-width:1"
     y="2443.6509"
     x="2147.5996"
     id="tspan1120"
     sodipodi:role="line">&amp;</tspan><tspan
     id="tspan1122"
     style="font-style:normal;font-variant:normal;font-weight:bold;font-stretch:normal;font-size:64px;line-height:8.42834663px;font-family:'MS Reference Sans Serif';-inkscape-font-specification:'MS Reference Sans Serif Bold';letter-spacing:2px;word-spacing:1.75000012px;fill:#ff6600;stroke-width:1"
     y="2550.3176"
     x="2147.5996"
     sodipodi:role="line" /></text>

</g><polygon
     id="polygon2"
     points="376.047,169.216 315.712,108.881 366.997,57.596 433.366,27.428 457.5,51.563   427.332,117.931 "
     style="fill:#CDD4D5;" /><g
     id="g8">
	
		<rect
   id="rect4"
   height="226.115"
   width="34.131"
   style="fill:#9BAAAB;"
   transform="matrix(-0.7071 -0.7071 0.7071 -0.7071 299.1308 561.8752)"
   y="105.928"
   x="248.868" />
	<polygon
   id="polygon6"
   points="345.55,138.72 376.047,169.216 427.332,117.931 457.5,51.563 445.104,39.166  "
   style="fill:#9BAAAB;" />
</g><rect
     id="rect10"
     height="226.115"
     width="17.53"
     style="fill:#687F82;"
     transform="matrix(0.7071 0.7071 -0.7071 0.7071 238.6089 -126.3273)"
     y="111.805"
     x="263.03" /><rect
     id="rect12"
     height="132.256"
     width="110.924"
     style="fill:#FF8C29;"
     transform="matrix(-0.7071 -0.7071 0.7071 -0.7071 -79.5995 718.7527)"
     y="309.734"
     x="53.597" /><g
     id="g18">
	<polygon
   id="polygon14"
   points="74.37,476.928 8,410.559 23.084,383.408 101.52,461.844  "
   style="fill:#FFD1A9;" />
	<polygon
   id="polygon16"
   points="158.84,271.787 213.141,326.089 195.041,368.324 116.605,289.888  "
   style="fill:#FFD1A9;" />
</g><g
     id="g26">
	<path
   id="path20"
   d="M62.303,430.625c-2.047,0-4.095-0.782-5.656-2.343c-3.124-3.124-3.124-8.189,0-11.313l93.52-93.52   c3.124-3.124,8.189-3.124,11.312,0c3.124,3.124,3.124,8.189,0,11.312l-93.52,93.52C66.397,429.844,64.349,430.625,62.303,430.625z"
   style="fill:#F0353D;" />
	<path
   id="path22"
   d="M86.436,448.726c-2.048,0-4.095-0.782-5.656-2.343c-3.124-3.124-3.124-8.189,0-11.313l90.503-90.503   c3.124-3.124,8.189-3.124,11.312,0c3.124,3.124,3.124,8.189,0,11.313l-90.503,90.503C90.531,447.945,88.484,448.726,86.436,448.726   z"
   style="fill:#F0353D;" />
	<path
   id="path24"
   d="M44.203,406.491c-2.047,0-4.095-0.781-5.656-2.343c-3.124-3.124-3.124-8.189,0-11.312l90.502-90.503   c3.124-3.124,8.189-3.124,11.313,0c3.124,3.124,3.124,8.189,0,11.312l-90.503,90.503C48.297,405.709,46.249,406.491,44.203,406.491   z"
   style="fill:#F0353D;" />
</g><polygon
     id="polygon28"
     points="151.039,179.073 243.05,271.084 335.062,363.096 365.23,332.928 273.218,240.917   181.206,148.905 "
     style="fill:#9BAAAB;" /><polygon
     id="polygon30"
     points="166.638,163.474 151.039,179.073 243.05,271.084 335.062,363.096 350.661,347.497 "
     style="fill:#687F82;" /><g
     id="g36">
	<polygon
   id="polygon32"
   points="108.804,40.301 166.123,97.62 132.938,130.804 99.754,163.989 42.435,106.67    12.267,136.838 81.653,206.224 148.021,200.19 175.173,173.039 202.324,145.888 208.357,79.519 138.971,10.133  "
   style="fill:#CDD4D5;" />
	<polygon
   id="polygon34"
   points="473.834,405.331 416.514,348.012 383.331,381.197 350.146,414.381 407.464,471.699    377.297,501.868 307.911,432.482 313.945,366.113 341.096,338.962 368.247,311.811 434.616,305.777 504.002,375.163  "
   style="fill:#CDD4D5;" />
</g><g
     id="g42">
	<polygon
   id="polygon38"
   points="132.938,130.804 99.754,163.989 42.435,106.67 12.267,136.838 81.653,206.224    148.021,200.19 175.173,173.039 175.689,172.524 133.454,130.289  "
   style="fill:#9BAAAB;" />
	<polygon
   id="polygon40"
   points="383.331,381.197 383.846,380.681 341.611,338.446 341.096,338.962 313.945,366.113    307.911,432.482 377.297,501.868 407.464,471.699 350.146,414.381  "
   style="fill:#9BAAAB;" />
</g><path
     id="path44"
     d="M509.658,369.507l-69.386-69.386c-1.679-1.679-4.017-2.525-6.38-2.31l-66.37,6.034c-1.863,0.17-3.608,0.987-4.932,2.31  l-6.411,6.41l-74.185-74.185l75.952-75.952l12.444,12.445c1.561,1.561,3.609,2.343,5.656,2.343s4.095-0.781,5.656-2.343  l51.285-51.285c0.678-0.678,1.229-1.473,1.625-2.346l30.167-66.37c1.38-3.036,0.733-6.609-1.625-8.967L439.02,21.771  c-2.358-2.358-5.93-3.007-8.967-1.625l-66.37,30.169c-0.874,0.397-1.668,0.947-2.347,1.625l-51.281,51.286  c-3.124,3.124-3.124,8.189,0,11.312l12.445,12.444l-75.952,75.952l-44.978-44.978l6.41-6.41c1.324-1.324,2.141-3.069,2.31-4.932  l6.034-66.37c0.215-2.365-0.631-4.703-2.31-6.38L144.628,4.477c-3.124-3.124-8.189-3.124-11.313,0l-30.166,30.167  c-3.124,3.124-3.124,8.189,0,11.312l51.662,51.662l-55.056,55.056l-51.662-51.661c-3.124-3.124-8.189-3.124-11.312,0L6.611,131.182  c-3.124,3.124-3.124,8.189,0,11.312l69.386,69.386c1.507,1.507,3.544,2.343,5.656,2.343c0.241,0,0.483-0.011,0.725-0.033  l66.37-6.034c1.863-0.17,3.608-0.987,4.932-2.31l6.41-6.41l44.978,44.978l-31.144,31.144l-9.428-9.428  c-2.312-2.311-5.8-2.984-8.808-1.696l-42.089,18.038c-0.005,0.002-0.011,0.004-0.016,0.006l-0.13,0.055  c-0.062,0.027-0.119,0.061-0.18,0.089c-0.164,0.075-0.326,0.151-0.486,0.238c-0.1,0.054-0.195,0.114-0.291,0.172  c-0.125,0.075-0.25,0.149-0.372,0.231c-0.127,0.085-0.246,0.177-0.367,0.27c-0.085,0.065-0.172,0.127-0.255,0.196  c-0.145,0.121-0.283,0.249-0.418,0.378c-0.045,0.043-0.093,0.079-0.137,0.124l-0.091,0.091c-0.009,0.009-0.017,0.017-0.026,0.026  l-93.268,93.268c-0.002,0.001-0.003,0.003-0.005,0.005l-0.129,0.129c-0.049,0.049-0.091,0.103-0.139,0.154  c-0.118,0.125-0.237,0.251-0.348,0.384c-0.083,0.099-0.159,0.204-0.237,0.306c-0.078,0.103-0.157,0.205-0.229,0.313  c-0.098,0.144-0.186,0.291-0.274,0.439c-0.035,0.06-0.076,0.115-0.11,0.176l-0.09,0.161c-0.001,0.002-0.002,0.003-0.003,0.005  L1.007,406.674c-1.734,3.122-1.189,7.016,1.336,9.541l66.37,66.369c1.539,1.539,3.587,2.343,5.659,2.343  c1.327,0,2.663-0.33,3.882-1.007l27.15-15.084c0.066-0.036,0.125-0.08,0.19-0.118c0.142-0.084,0.285-0.17,0.422-0.263  c0.111-0.076,0.215-0.157,0.321-0.237c0.1-0.076,0.202-0.15,0.299-0.231c0.134-0.111,0.26-0.229,0.385-0.348  c0.05-0.048,0.105-0.09,0.154-0.139l0.131-0.131c0.001-0.001,0.002-0.002,0.003-0.003l93.385-93.385  c0.103-0.103,0.194-0.213,0.29-0.321c0.065-0.073,0.133-0.142,0.196-0.217c0.02-0.023,0.044-0.046,0.063-0.07  c0.199-0.244,0.377-0.5,0.543-0.76c0.035-0.057,0.067-0.115,0.101-0.172c0.174-0.289,0.329-0.585,0.463-0.888  c0.012-0.027,0.028-0.049,0.039-0.076l0.051-0.121c0.004-0.01,0.009-0.02,0.013-0.03l18.036-42.084  c1.288-3.007,0.616-6.494-1.696-8.808l-9.428-9.428l31.144-31.144l74.185,74.185l-6.41,6.41c-1.324,1.324-2.141,3.069-2.31,4.932  l-6.034,66.37c-0.215,2.365,0.631,4.703,2.31,6.38l69.386,69.386c1.561,1.561,3.609,2.343,5.656,2.343s4.095-0.781,5.656-2.343  l30.167-30.167c3.124-3.124,3.124-8.189,0-11.312l-51.663-51.662l55.056-55.056l51.663,51.662c3.124,3.124,8.189,3.124,11.312,0  l30.167-30.167C512.782,377.695,512.782,372.63,509.658,369.507z M326.011,342.733l-79.84-79.841l0,0l0,0l-24.135-24.135  l-50.635-50.634l18.855-18.855l50.634,50.635l24.134,24.134h0.001l79.841,79.841L326.011,342.733z M185.236,286.871l31.144-31.144  l12.821,12.822l-31.144,31.144L185.236,286.871z M346.633,151.116l-75.952,75.952l-12.821-12.821l75.952-75.952L346.633,151.116z   M371.628,64.279l60.002-27.274l16.294,16.294l-27.274,60.002l-44.603,44.603l-12.444-12.444l-24.134-24.134l-12.444-12.444  L371.628,64.279z M144.413,192.486l-59.754,5.432l-61.08-61.08l18.855-18.855l51.662,51.662c3.124,3.124,8.189,3.124,11.312,0  l66.37-66.37c3.124-3.124,3.124-8.189,0-11.312l-51.662-51.662l18.855-18.855l61.08,61.08l-5.432,59.754l-10.02,10.02  l-30.169,30.169L144.413,192.486z M150.151,334.748c0.005,0.005,0.01,0.012,0.015,0.016c0.005,0.005,0.011,0.01,0.016,0.014  l21.101,21.101l12.444,12.444l-82.208,82.207l-33.561-33.561l-33.561-33.561l82.208-82.207l12.444,12.444L150.151,334.748z   M75.76,467.004l-57.836-57.836l7.003-12.606l31.719,31.719l31.719,31.719L75.76,467.004z M192.343,354.313l-9.745-9.745  l-21.064-21.063c-0.017-0.018-0.033-0.038-0.05-0.055c-0.018-0.017-0.037-0.033-0.055-0.05l-21.066-21.066l-9.747-9.747  l26.397-11.313l11.255,11.254L192.4,316.66l11.254,11.255L192.343,354.313z M473.834,394.019l-51.663-51.662  c-3.124-3.124-8.189-3.124-11.312,0l-66.37,66.37c-3.124,3.124-3.124,8.189,0,11.312l51.663,51.663l-18.855,18.855l-61.08-61.08  l5.432-59.754l10.02-10.02l30.169-30.169c0.002-0.002,0.003-0.003,0.005-0.005l10.014-10.013l59.754-5.432l61.08,61.08  L473.834,394.019z" /></g>
<flowRoot
   xml:space="preserve"
   id="flowRoot4761"
   style="font-style:normal;font-weight:normal;font-size:16px;line-height:1.25;font-family:sans-serif;letter-spacing:0px;word-spacing:0px;fill:#000000;fill-opacity:1;stroke:none"
   transform="matrix(1.3333334,0,0,1.3333334,1799.2908,-1574.8008)"><flowRegion
     id="flowRegion4763"><rect
       id="rect4765"
       width="33.451805"
       height="65.045174"
       x="135.66565"
       y="303.89566" /></flowRegion><flowPara
     id="flowPara4767" /></flowRoot><text
   xml:space="preserve"
   style="font-style:normal;font-weight:normal;font-size:16px;line-height:1.25;font-family:sans-serif;letter-spacing:0px;word-spacing:0px;fill:#000000;fill-opacity:1;stroke:none;stroke-width:1"
   x="2067.4951"
   y="853.64526"
   id="text1197"><tspan
     sodipodi:role="line"
     id="tspan1195"
     x="2067.4951"
     y="868.24255"
     style="stroke-width:1" /></text>

</svg>